<?xml version="1.0" encoding="UTF-8"?>
<svg width="20px" height="20px" viewBox="0 0 20 20" version="1.1" xmlns="http://www.w3.org/2000/svg" xmlns:xlink="http://www.w3.org/1999/xlink">
    <title>Disconnect</title>
    <g id="页面-1" stroke="none" stroke-width="1" fill="none" fill-rule="evenodd">
        <g id="(W)钱包下拉框" transform="translate(-1689.000000, -88.000000)" fill="#7B7B7B" fill-rule="nonzero">
            <g id="编组-2" transform="translate(1669.000000, 68.000000)">
                <g id="Disconnect" transform="translate(20.000000, 20.000000)">
                    <path d="M16.0362806,11.9163092 L15.1506247,11.0306532 L17.5877489,8.65634147 C19.3049225,6.93916791 19.3049225,4.15507948 17.5877489,2.43790592 C15.8705753,0.720732353 13.0864869,0.720732353 11.3693133,2.43790592 L8.93218911,4.81221767 L8.04653313,3.92028046 L10.4522511,1.52084371 C12.6796552,-0.554673103 16.1506727,-0.493431075 18.3034731,1.6593693 C20.4562734,3.81216968 20.5175155,7.28318715 18.4419986,9.51059122 L16.0362806,11.9163092 Z M5.65337763,19.962588 C3.36844812,19.9605782 1.30939895,18.5832632 0.435266155,16.47215 C-0.438866639,14.3610369 0.0438188305,11.9312849 1.65850387,10.314591 L4.06422187,7.90887296 L4.94987785,8.79452893 L2.54415984,11.2002469 C0.818313727,12.9260931 0.818313748,15.7242426 2.54415989,17.4500887 C4.27000603,19.1759348 7.06815548,19.1759349 8.79400165,17.4500887 L11.1997197,15.0443707 L12.0853756,15.9300267 L9.67965762,18.3357447 C8.61042791,19.3966172 7.15946212,19.9828889 5.65337763,19.962588 L5.65337763,19.962588 Z M2.69428168,3.44604623 L3.58245014,2.55724963 L8.60556421,7.58036369 L7.71739573,8.46853215 L2.69428168,3.44604623 Z M11.4874008,12.2397935 L12.3755693,11.351625 L17.3986833,16.3747391 L16.5105149,17.2629075 L11.4874008,12.2397935 Z" id="形状"></path>
                </g>
            </g>
        </g>
    </g>
</svg>